<?xml version="1.0" encoding="UTF-8" standalone="no"?>
<!DOCTYPE svg PUBLIC "-//W3C//DTD SVG 1.1//EN"
 "http://www.w3.org/Graphics/SVG/1.1/DTD/svg11.dtd">
<!-- Generated by graphviz version 7.1.0 (20230121.1956)
 -->
<!-- Pages: 1 -->
<svg width="514pt" height="476pt"
 viewBox="0.00 0.00 513.54 476.00" xmlns="http://www.w3.org/2000/svg" xmlns:xlink="http://www.w3.org/1999/xlink">
<g id="graph0" class="graph" transform="scale(1 1) rotate(0) translate(4 472)">
<polygon fill="white" stroke="none" points="-4,4 -4,-472 509.54,-472 509.54,4 -4,4"/>
<!-- [root] aws_eip.lb (expand) -->
<g id="node1" class="node">
<title>[root] aws_eip.lb (expand)</title>
<polygon fill="none" stroke="black" points="290.27,-252 215.27,-252 215.27,-216 290.27,-216 290.27,-252"/>
<text text-anchor="middle" x="252.77" y="-230.3" font-family="Times,serif" font-size="14.00">aws_eip.lb</text>
</g>
<!-- [root] aws_instance.myec2 (expand) -->
<g id="node2" class="node">
<title>[root] aws_instance.myec2 (expand)</title>
<polygon fill="none" stroke="black" points="317.27,-180 188.27,-180 188.27,-144 317.27,-144 317.27,-180"/>
<text text-anchor="middle" x="252.77" y="-158.3" font-family="Times,serif" font-size="14.00">aws_instance.myec2</text>
</g>
<!-- [root] aws_eip.lb (expand)&#45;&gt;[root] aws_instance.myec2 (expand) -->
<g id="edge1" class="edge">
<title>[root] aws_eip.lb (expand)&#45;&gt;[root] aws_instance.myec2 (expand)</title>
<path fill="none" stroke="black" d="M252.77,-215.7C252.77,-208.41 252.77,-199.73 252.77,-191.54"/>
<polygon fill="black" stroke="black" points="256.27,-191.62 252.77,-181.62 249.27,-191.62 256.27,-191.62"/>
</g>
<!-- [root] provider[&quot;registry.terraform.io/hashicorp/aws&quot;] -->
<g id="node4" class="node">
<title>[root] provider[&quot;registry.terraform.io/hashicorp/aws&quot;]</title>
<polygon fill="none" stroke="black" points="252.77,-108 0.23,-90 252.77,-72 505.3,-90 252.77,-108"/>
<text text-anchor="middle" x="252.77" y="-86.3" font-family="Times,serif" font-size="14.00">provider[&quot;registry.terraform.io/hashicorp/aws&quot;]</text>
</g>
<!-- [root] aws_instance.myec2 (expand)&#45;&gt;[root] provider[&quot;registry.terraform.io/hashicorp/aws&quot;] -->
<g id="edge2" class="edge">
<title>[root] aws_instance.myec2 (expand)&#45;&gt;[root] provider[&quot;registry.terraform.io/hashicorp/aws&quot;]</title>
<path fill="none" stroke="black" d="M252.77,-143.7C252.77,-136.41 252.77,-127.73 252.77,-119.54"/>
<polygon fill="black" stroke="black" points="256.27,-119.62 252.77,-109.62 249.27,-119.62 256.27,-119.62"/>
</g>
<!-- [root] aws_security_group.allow_tls (expand) -->
<g id="node3" class="node">
<title>[root] aws_security_group.allow_tls (expand)</title>
<polygon fill="none" stroke="black" points="342.27,-324 163.27,-324 163.27,-288 342.27,-288 342.27,-324"/>
<text text-anchor="middle" x="252.77" y="-302.3" font-family="Times,serif" font-size="14.00">aws_security_group.allow_tls</text>
</g>
<!-- [root] aws_security_group.allow_tls (expand)&#45;&gt;[root] aws_eip.lb (expand) -->
<g id="edge3" class="edge">
<title>[root] aws_security_group.allow_tls (expand)&#45;&gt;[root] aws_eip.lb (expand)</title>
<path fill="none" stroke="black" d="M252.77,-287.7C252.77,-280.41 252.77,-271.73 252.77,-263.54"/>
<polygon fill="black" stroke="black" points="256.27,-263.62 252.77,-253.62 249.27,-263.62 256.27,-263.62"/>
</g>
<!-- [root] var.ACCESS_KEY -->
<g id="node5" class="node">
<title>[root] var.ACCESS_KEY</title>
<polygon fill="none" stroke="black" points="237.77,-36 121.77,-36 121.77,0 243.77,0 243.77,-30 237.77,-36"/>
<polyline fill="none" stroke="black" points="237.77,-36 237.77,-30"/>
<polyline fill="none" stroke="black" points="243.77,-30 237.77,-30"/>
<text text-anchor="middle" x="182.77" y="-14.3" font-family="Times,serif" font-size="14.00">var.ACCESS_KEY</text>
</g>
<!-- [root] provider[&quot;registry.terraform.io/hashicorp/aws&quot;]&#45;&gt;[root] var.ACCESS_KEY -->
<g id="edge5" class="edge">
<title>[root] provider[&quot;registry.terraform.io/hashicorp/aws&quot;]&#45;&gt;[root] var.ACCESS_KEY</title>
<path fill="none" stroke="black" d="M236.53,-72.76C228.04,-64.27 217.44,-53.68 207.91,-44.15"/>
<polygon fill="black" stroke="black" points="210.51,-41.79 200.96,-37.19 205.56,-46.74 210.51,-41.79"/>
</g>
<!-- [root] var.SECRET_KEY -->
<g id="node6" class="node">
<title>[root] var.SECRET_KEY</title>
<polygon fill="none" stroke="black" points="377.77,-36 261.77,-36 261.77,0 383.77,0 383.77,-30 377.77,-36"/>
<polyline fill="none" stroke="black" points="377.77,-36 377.77,-30"/>
<polyline fill="none" stroke="black" points="383.77,-30 377.77,-30"/>
<text text-anchor="middle" x="322.77" y="-14.3" font-family="Times,serif" font-size="14.00">var.SECRET_KEY</text>
</g>
<!-- [root] provider[&quot;registry.terraform.io/hashicorp/aws&quot;]&#45;&gt;[root] var.SECRET_KEY -->
<g id="edge6" class="edge">
<title>[root] provider[&quot;registry.terraform.io/hashicorp/aws&quot;]&#45;&gt;[root] var.SECRET_KEY</title>
<path fill="none" stroke="black" d="M269,-72.76C277.5,-64.27 288.09,-53.68 297.62,-44.15"/>
<polygon fill="black" stroke="black" points="299.98,-46.74 304.57,-37.19 295.03,-41.79 299.98,-46.74"/>
</g>
<!-- [root] provider[&quot;registry.terraform.io/hashicorp/aws&quot;] (close) -->
<g id="node7" class="node">
<title>[root] provider[&quot;registry.terraform.io/hashicorp/aws&quot;] (close)</title>
<ellipse fill="none" stroke="black" cx="252.77" cy="-378" rx="227.46" ry="18"/>
<text text-anchor="middle" x="252.77" y="-374.3" font-family="Times,serif" font-size="14.00">[root] provider[&quot;registry.terraform.io/hashicorp/aws&quot;] (close)</text>
</g>
<!-- [root] provider[&quot;registry.terraform.io/hashicorp/aws&quot;] (close)&#45;&gt;[root] aws_security_group.allow_tls (expand) -->
<g id="edge4" class="edge">
<title>[root] provider[&quot;registry.terraform.io/hashicorp/aws&quot;] (close)&#45;&gt;[root] aws_security_group.allow_tls (expand)</title>
<path fill="none" stroke="black" d="M252.77,-359.7C252.77,-352.41 252.77,-343.73 252.77,-335.54"/>
<polygon fill="black" stroke="black" points="256.27,-335.62 252.77,-325.62 249.27,-335.62 256.27,-335.62"/>
</g>
<!-- [root] root -->
<g id="node8" class="node">
<title>[root] root</title>
<ellipse fill="none" stroke="black" cx="252.77" cy="-450" rx="47.39" ry="18"/>
<text text-anchor="middle" x="252.77" y="-446.3" font-family="Times,serif" font-size="14.00">[root] root</text>
</g>
<!-- [root] root&#45;&gt;[root] provider[&quot;registry.terraform.io/hashicorp/aws&quot;] (close) -->
<g id="edge7" class="edge">
<title>[root] root&#45;&gt;[root] provider[&quot;registry.terraform.io/hashicorp/aws&quot;] (close)</title>
<path fill="none" stroke="black" d="M252.77,-431.7C252.77,-424.41 252.77,-415.73 252.77,-407.54"/>
<polygon fill="black" stroke="black" points="256.27,-407.62 252.77,-397.62 249.27,-407.62 256.27,-407.62"/>
</g>
</g>
</svg>
